# xmcd CD database file
#
# Track frame offsets:
#	150
#	10539
#	24979
#	35428
#	45186
#	58695
#	70450
#	81433
#	93395
#	107228
#	120892
#	131914
#	145619
#	159115
#	173635
#	187474
#
# Disc length: 2760 seconds
#
# Revision: 2
# Processed by: cddbd v1.4b41PL1 Copyright (c) Steve Scherf et al.
# Submitted via: Feurio! 1.50.2ß - http://www.feurio.com
#
DISCID=cb0ac610
DTITLE=Various Artist - Country Love - CD1
DYEAR=1900
DGENRE=
TTITLE0=Johnny Cash - Ballad of a Teenage Queen
TTITLE1=Freddy Locklin - Coward Of The Country
TTITLE2=Jeany Wilson - Blue Bayon
TTITLE3=Patsy Cline - I've Loved and Love Again
TTITLE4=Donna Jannings and Freddy Lokin - Islands in the Stream
TTITLE5=Donna Jannings - I Will always love you
TTITLE6=Waylon Jennings - Treat me mean, treat me cruel
TTITLE7=Jack Dundy - Hoe do I lie
TTITLE8=Feddy Lokin - Lucille
TTITLE9=Johnny Turner - Take me Home Country Rose
TTITLE10=Johnny Turner - Calypso
TTITLE11=Conway Twitty - Ever Since You Walked Away
TTITLE12=Earl Duffy - Shut Up And Drive
TTITLE13=Kenny Rogers - Where Does Rosie Go
TTITLE14=Nelson Jones - Adios Amigo
TTITLE15=Lynn Anderson - I Never Promised A Rose Garden
EXTD=
EXTT0=
EXTT1=
EXTT2=
EXTT3=
EXTT4=
EXTT5=
EXTT6=
EXTT7=
EXTT8=
EXTT9=
EXTT10=
EXTT11=
EXTT12=
EXTT13=
EXTT14=
EXTT15=
PLAYORDER=
